<svg xmlns="http://www.w3.org/2000/svg" viewBox="0 0 752.56 243.9"><defs><style>.cls-1{fill:#fff;}.cls-2{fill:#5a5a96;}.cls-3{fill:#b42846;}.cls-4{fill:#008cc3;}.cls-5{fill:#e16428;}.cls-6{fill:#00a846;}.cls-7{fill:#f0b428;}</style></defs><title>Asset 1</title><g id="Layer_2" data-name="Layer 2"><g id="Layer_1-2" data-name="Layer 1"><path d="M195,230c-9.79,0-16.74-6.68-16.74-16.57A27.68,27.68,0,0,1,186.44,194a22.77,22.77,0,0,1,16.06-7.07c8.22,0,12.82,3.71,16.83,9.42l12.44-8.74c-5.46-9-14.27-14.61-27.4-14.61a41.86,41.86,0,0,0-29.6,12.35A40.87,40.87,0,0,0,162.62,214c0,18.32,13.64,29.86,32.34,29.86,11.46,0,19.38-4.38,25.94-10.48l-9.79-10.18C206,227.37,201.69,230,195,230Z"/><path d="M292.26,174.16,285,201.3H257.54l7.29-27.14H249.7l-18.4,68.59h15.08l7.46-27.52h27.43l-7.45,27.52H288.9l18.44-68.59Z"/><path d="M335.42,186.43a30.12,30.12,0,0,1-6.69-12.27h-1.32L309,242.75h15.08l14.4-53.51C336.74,187.37,336.06,187.54,335.42,186.43Z"/><path d="M382,230c-9.8,0-16.74-6.68-16.74-16.57A27.68,27.68,0,0,1,373.38,194a22.83,22.83,0,0,1,16.06-7.07c8.22,0,12.82,3.71,16.87,9.42l12.44-8.74c-5.5-9-14.32-14.61-27.44-14.61a42,42,0,0,0-29.61,12.35A40.9,40.9,0,0,0,349.56,214c0,18.32,13.64,29.86,32.34,29.86,11.46,0,19.38-4.38,26-10.48l-9.79-10.18C393,227.37,388.67,230,382,230Z"/><path d="M473.92,173.69H459.39l-47.88,69.06h16.27l10.35-15.38h29l2.17,15.38h15.46ZM447.16,214l15.09-22.62L465.4,214Z"/><path d="M529.56,216.3h15.21l-3.24,11.16a28.94,28.94,0,0,1-12.27,2.64c-9.67,0-17.51-5.79-17.51-16.44a27.53,27.53,0,0,1,7.92-19.3,25.53,25.53,0,0,1,18-7.54,22.77,22.77,0,0,1,18,7.92l11.16-9.88c-4.77-6.27-13.51-11.89-28-11.89a42.84,42.84,0,0,0-30.68,12.57,40.74,40.74,0,0,0-12.14,28.58c0,20.5,16.53,29.78,32.21,29.78a48.82,48.82,0,0,0,24.88-6.43l9.71-34.21H533.09Z"/><path d="M616.76,173a41,41,0,0,0-41.23,40.56c0,17.25,12.43,30.37,31.35,30.37a41,41,0,0,0,41.24-40.55C648.12,186.13,635.68,173,616.76,173Zm7.76,50.27A22.37,22.37,0,0,1,608.63,230c-11.25,0-17.43-7.24-17.43-17.46a27.76,27.76,0,0,1,7.93-18.87A22.27,22.27,0,0,1,615,186.9c11.24,0,17.42,7.24,17.42,17.43A27.89,27.89,0,0,1,624.52,223.24Z"/><path class="cls-1" d="M117.76,17.66c3.29-5.31,8.68-10.84,14.45-13.22,10-4.55,23.42-2.59,31.58,4.63,7.89,7.14,11.9,16.91,10.06,27.87,1.92-.31,3.86-1.56,6-2.27,12.21-3.42,25.2.29,33,10.83,5.91,7.48,7.45,19.14,3.91,28.18A32.58,32.58,0,0,1,208.1,85.9l.39.34c11.38.55,22.64,9.43,26.11,20.32,3.68,10.92.41,22.66-7.63,30.7-6.5,6.41-14.95,8.66-24.31,8.49H32.84c-14,.27-24.71-5.9-30.53-18.3C-2.25,116.8,0,103.21,8.55,95.1c5.32-5.63,12-7.93,19.29-9C19.65,78.46,15.66,68,18,56.84c1.67-9.06,9.36-18.21,18.2-21.38C44,32.41,54.56,33,61.7,37.13l.3-.27C59.82,24.5,65.29,13.41,75.45,6.6c9.16-6.14,23.69-6,32.63.51,4,2.5,7.32,6.72,9.68,10.55Z"/><path class="cls-2" d="M165.87,22.25c3.63,7.37,1.53,17-2.32,23.66l-29.49,66.28-.24.33L123.16,45.25c-.85-6.47,6.08-9.19,10.15-12.29-.19-1-1.31-1-1.94-1.37l-9.92-.11-.33-.33a22.77,22.77,0,0,1,12.19-20.09c7.95-4.59,19.1-3.35,26,2.55a24.53,24.53,0,0,1,6.54,8.64Z"/><path class="cls-3" d="M111.59,20a23.74,23.74,0,0,1,2.93,15.11l-12,77a.18.18,0,0,1-.13.25l-3.13-6.21L69.15,38.91A23.27,23.27,0,0,1,100.3,10.3,24.51,24.51,0,0,1,111.59,20Z"/><path class="cls-4" d="M209.4,52.41c4.1,6.91,3.19,17.35-1.3,23.8-2.82,4.47-7.42,6.75-11.28,9.69l-62.44,42.82h-.14l.69-2.08L168,52a23.77,23.77,0,0,1,24.39-11.91c6.86,1.26,13.7,5.71,17,12.32Z"/><path class="cls-5" d="M67.67,52l34.45,76.72h-.63L32.13,80.85A22.88,22.88,0,0,1,24.59,57,24.11,24.11,0,0,1,38.65,41.41,23.78,23.78,0,0,1,67.67,52Z"/><path class="cls-6" d="M227.54,106.57c3.44,7.23,2.06,17.27-2.85,23.47a23.32,23.32,0,0,1-19.16,9l-74,0,62-43.13c6.05-3.84,15.25-4.59,21.86-1.41,5.09,2,9.91,7,12.15,12Z"/><path class="cls-7" d="M8.42,106.57c-3.48,7.23-2.1,17.27,2.84,23.47a23.38,23.38,0,0,0,19.16,9l74,0L42.43,96c-6-3.84-15.23-4.59-21.86-1.41-5.09,2-9.89,7-12.15,12Z"/><path d="M454.7,65.66c-5.92-4.61-14.35-1-14.35-1-16.19,5.15-33.7,18.1-47.55,30.16,6.35-7.29,13.55-15.13,21.73-23.6,0,0,5.84-3,1.36-7.42a130.2,130.2,0,0,0-9.79-8.6s-2.13-1.88-3.16-1.11-.25,2.85-.08,3.15S400.22,61,400.22,61a6.78,6.78,0,0,0-.47.51c-4.69,4.09-13.21,8.18-17.51,10.14-9.29,3.41-21.17,7.42-34,12a14.28,14.28,0,0,0-2.59-2.08c-15.3-9.55-61-10.4-78.52-11.68-18.92-1.45-23.18-2.68-23.9-5.79-.94-4.09,5.07-9.84,13.59-16.1,33.14-24.16,78.9-29.1,93.73-28.85,16.23.26,20.79,2.18,21,3.37a2.51,2.51,0,0,1-.51,2c-2.64,3-6.22,4.95-10.1,7.46a251.29,251.29,0,0,1-31,16.74c-3.54,3.28,3.32,4.13,3.32,4.13a83.45,83.45,0,0,0,27-5.87c17.64-6.74,21.85-12.79,22.36-16.41.77-5.71-1.4-11.67-1.49-12.22C376.7-.8,346.32,0,346.32,0c-26.15.09-65.39,7.55-100.2,33.06C228.27,46.14,231,55.52,231,55.52s-.3,18.14,13.5,22.57c5.54,1.79,9.59,2.73,18.66,3.63,17.64,1.79,30.68,2,48.95,3.28,10.74.72,18.24,2,23.31,3.28-14.91,5.54-30.29,11.67-43.71,18.4-11.72,5.88-29.23,15.72-35.53,23.56-6.82,8.61-1.67,15.55-1.28,15.55,1.36,2.43,6.39,10.14,25.73,7.67,9.8-1.24,21.22-5.88,30-10.65a128.77,128.77,0,0,0,27.7-20.37c11.33-10.94,14.57-19.38,14.57-26.75a18.88,18.88,0,0,0-1.28-7c13.67-4.73,25.64-8.35,33.61-10.61-18.53,22.29-47.71,61.57-47.37,87.72a27.56,27.56,0,0,0,1.32,8.35,20.66,20.66,0,0,0,2.13,4.56c.21.34.42.73.68,1.07a25.49,25.49,0,0,0,2.56,3.49s3,2.47,4.09,1-2.22-3.11-2.22-3.11c-.94-1.15-1.53-3-1.11-6.18a57.59,57.59,0,0,1,2.09-9.5,59.4,59.4,0,0,1,1.92-5.66l4.56-10.31,0-.05v0a179.4,179.4,0,0,1,27.26-35.23C410.53,85,436.73,73,442.09,71.28c3.92-1.24,5.63-.9,6.27-.3,3.75,3.32-5.58,18.36-5.58,18.36a8,8,0,0,1-.51.68c-16.83,24.59-26.67,31.4-35.49,34.77-6.09,1.83-9.8-.22-10.95-1-2.13-2-3.32-4.82-3.11-6.18.38-2.6-.77-2.51-.77-2.51-4.22,1.44-1.87,8.82-1.87,8.82,3.11,14,22.53,17.59,41,3.79,24.37-18.24,29.18-32.85,32.68-41.75S460.63,70.26,454.7,65.66ZM341.6,96.93c-6.14,10.65-26.89,23.38-33.83,27.3a150.13,150.13,0,0,1-23.56,11.29c-12.06,4.35-22.79,6.35-23.81,3.41-.39-1.23-1.2-1.79,2.72-5.88,4.56-4.81,18.58-13.8,31.53-20.53A413.51,413.51,0,0,1,342,92.15C342.62,93.35,342.75,94.92,341.6,96.93Z"/><path d="M752.52,55.33c-1.34-8-13.51-9.9-34.87-8.19-11.28.89-32.59,3.92-51.71,7l18.8-21s4.08-2.63-.12-5.87a54.28,54.28,0,0,0-8.77-5.41s-1.87-1.8-5.15,1.19c-1.91,1.77-14,14-30.93,35.2-18.87,2.51-40.58,4.05-46.17,4.7,0,0-2.75.57-3.82-1.32,0,0-2.45-1.71-1.88,2.38,0,0,.6,10.86,11.06,8.89,5.93-1.13,18-2.71,33-4.72-2.54,3.31-6.45,8.27-10.6,14.09-18.77,20.48-50.6,53.39-57.72,49,0,0-1.56-1.44-.47-5,1.6-5.23,7.65-14.71,19.78-28.95,0,0,5.6-6.64,5.37-9.57-.36-4.49-2.86-4.39-2.86-4.39S569.34,78.66,564,73.83c2.25-3.51,6.39-11.34,1.11-15,0,0-6.78-4.3-11.76,5.91-2,4.07-1.83,8,.79,11.61-3.69,3.92-13.92,13.92-24.1,16.87-.58-3.55-2.08-5.72-4.34-6.85,0,0-5.61-2.83-8.66.69s-.34,7,2.77,9.36c-.92,2.78-3.49,6.41-7.08,12A66,66,0,0,1,494,128c-2.76,1.89-14.09,8.43-17.06-.52C475.27,122.57,478,113,485,102.2,499.34,79.83,519.44,72.5,524.87,76c0,0,2.55,2.53,1,5.32,0,0-.58,1.53,1.48,1.72s3.22-1.61,3.57-3.42c.86-4.73-3.44-10.15-8.33-14a28.51,28.51,0,0,0-5.09-3s-8.55-3-20.22,2.8c-3.59,1.77-18.89,10.2-30,30-3.53,6.27-5.76,13-5.68,19.49a24.32,24.32,0,0,0,3.13,12.45,34.27,34.27,0,0,0,11.83,10.87c12.55,6.42,27.25-5.79,33-11,10.09-9.23,17.81-21.46,19.58-26.78,13.21-3.41,26.28-16.66,30.54-21.31.78.52,1.57,1,2.48,1.53l7.93,4.21a106.41,106.41,0,0,0-9.6,12.34c-5.08,7.17-17.68,24-9.54,34.87a17,17,0,0,0,7.33,6.21c10.76,4.26,22.94-6.31,41.82-26.14,3-3.14,5.86-6.27,8.6-9.34-1.17,2.36-2.26,4.73-3.15,7.06-4.4,11.46-1.84,21.79,7.39,27.92,5.47,3.62,12.58,2,20.71-3.37,16.05-10.6,39.74-34.44,54.79-50.31-.54,2.18-1.06,4.56-1.53,7.24-3.57,19.89-15.65,45.49-20.42,38.93-.09,1-.15-4.42-2.74-6.59-2.36-2-4.42-2.49-7-.76-3.42,2.25-1.72,10.62,8.79,16A19.24,19.24,0,0,0,672,141c5.72,1,17.3,1.06,31-9.16,18.48-13.89,38.5-33.78,38.5-33.78s4-3.55.21-5.74a3.25,3.25,0,0,0-3.58.59A17.37,17.37,0,0,0,736.23,95c.27-.27-28,26.7-44.77,35.74,2.71-3.31,4.39-8.1,5.81-13.76,1.18-4.76,3.23-17.59,5.38-27A62.7,62.7,0,0,1,706,79.56c2-4.59,4.86-4.2,5.51-5.54.46-.94.29-1.8-.93-3.3a35.33,35.33,0,0,0-3.49-3.62c-1.33-1.22-4.1-3.1-5.58-3.38a3.86,3.86,0,0,0-3.21.69,18.4,18.4,0,0,0-4.39,5.26c-10.14,11.07-43.4,46.55-63.75,58.63,1.09-.65-16.53,11.26-12.79-4.23,1.7-7,8.77-22.82,28.63-47.72l10.33-11.53c8.48-1.21,17.3-2.53,26.1-4,0,0,77.62-9.62,56.6,6.91,0,0,1.35,2.6,4.6,0,6.75-5.35,9.28-10,8.88-12.47Z"/></g></g></svg>