<?xml version="1.0" encoding="utf-8"?>
<!-- Generator: Adobe Illustrator 25.4.1, SVG Export Plug-In . SVG Version: 6.00 Build 0)  -->
<svg version="1.1" id="Layer_1" xmlns="http://www.w3.org/2000/svg" xmlns:xlink="http://www.w3.org/1999/xlink" x="0px" y="0px"
	 viewBox="0 0 512 127.7" style="enable-background:new 0 0 512 127.7;" xml:space="preserve">
<style type="text/css">
	.st0{fill:#EF3E33;}
</style>
<g>
	<path class="st0" d="M155.1,0c-9.7,0-26.9,11.1-26.9,36.1h253C384.6-1,358.5,0,358.5,0S160.5,0,155.1,0L155.1,0z M126,49.2
		c0,0,0,7.7,0,11.7c0,7.9,7.9,17.6,20,17.6c7.6,0,61.3,0.1,61.3,0.1l-2,15.1h-83l-4.4,34.1c0,0,88.5,0,97.2,0
		c8.2,0,27.2-6.6,30.5-26c0,0,3.8-32,3.9-33.2c0.5-6.2-3.3-19.3-20.2-19.3C220.7,49.2,126,49.2,126,49.2L126,49.2z M258.3,49.2
		h121.4L377,62.9c0,0-2.7,15.6-21.4,15.6c-18.8,0-59.5,0-59.5,0l-5.6,49.2h-41.2L258.3,49.2L258.3,49.2z M386,36.1h124.5
		C516.2,11.9,504.5,0,492.3,0c-14.4,0-49.6,0-101.6,0L386,36.1L386,36.1z M416.7,127.7h-41.2l9-78.5h41.7L416.7,127.7L416.7,127.7z
		 M499.6,127.7h-41.2l9-78.5h41.7L499.6,127.7L499.6,127.7z M9.3,49.2h111.4L117,78.5H48.5l-2.2,15.1H115l-4.1,34.1H0L9.3,49.2
		L9.3,49.2z M14.9,0h111.4l-4.8,36.1H11L14.9,0L14.9,0z"/>
</g>
</svg>
