<?xml version="1.0" encoding="utf-8"?>
<!-- Generator: Adobe Illustrator 25.4.1, SVG Export Plug-In . SVG Version: 6.00 Build 0)  -->
<svg version="1.1" id="Layer_1" xmlns="http://www.w3.org/2000/svg" xmlns:xlink="http://www.w3.org/1999/xlink" x="0px" y="0px"
	 viewBox="0 0 512 498" style="enable-background:new 0 0 512 498;" xml:space="preserve">
<style type="text/css">
	.st0{fill:#FFFFFF;}
	.st1{fill:#006BB1;}
	.st2{fill:#EA2C4D;}
</style>
<g>
	<path class="st0" d="M512,62.4l0,373.2c0,34.4-28,62.4-62.4,62.4l-387.2,0C28,498,0,470,0,435.6L0,62.4C0,28,28,0,62.4,0l387.2,0
		C484,0,512,28,512,62.4z"/>
	<path class="st1" d="M176.8,418.8c-3.9-16.3-16.9-26.2-10.2-31.6c-1.6-5.4-5-12.2-4.9-12.1c-20.2-11.6-37.4-30.4-40.3-33.2
		c-3.5-3.9-9.5-7.8-10.7-10.9c-4.9-4.4-28.7-38.2-34.1-50.6l-9.7-1.4c-4.4-17.9-19-33-19.4-51c-0.1-6.8,3.1-21.3,4.2-24.2
		c1.2-2.9,6.8-7.8,6.8-7.8v-4.8c-21.1,0.6-15-1.5-18.6-9.7c-2.5-5.7-0.8-6.9,0.1-10.9c2.8-11.5,12.3-29.5,16.1-37.6
		c1.2-4.1,5.3-14,5.3-14C77.1,87,83,89.3,101.6,87.6l1-1.3c18.7-0.8,15.7-2.3,18.2-20.2c-2.7,1.2-3.5-5.6-3.5-5.6
		c-1.5-10.3,2.8-8.3,4.8-8.5c0.5-16.8,2.1-22.1,14.4-26.8l-74.1,0c-20.6,0-37.3,16.7-37.3,37.2l0,373.2c0,20.6,16.7,37.3,37.3,37.3
		l121.3,0c-12.6-6.8-5.1-19.8-4.7-44.4C173.1,423.1,177,420.9,176.8,418.8z"/>
	<path class="st2" d="M189.3,472.4c16.3-9.9,6.2-28.7,3.1-39.7c-0.2-0.6,0.3-1.4,0.6-1.9c0.8-1.5-0.9-5-0.9-5
		c-1.9-1.8-2.5-10.9-3.5-15.2c-1.8-7,3.1-19,3.1-23.1c0-4.1-3.1-9.7-8.7-16.9c-1.3-1.6-5.5-36.6-9.1-45.4
		c-5-12.2-6.6-10.3-12.6-24.9c-4.7-10.3-1-25.4-11.4-60.5c0,0.2,2.3-2.1,2.3-2.1s-8.4-30.5-11-38.8c-2.7-8.3-7.6-8.9-7.6-8.9
		s0-3.4,0.3-4.3c0.4-1.4,10.1-26.7,11-27.5c0-0.6,14.1-10.1,14.4-8.7c1.2,6.2,6.6,37.8,8.9,42.9c2.3,5,10.5,20.6,14.3,30.2
		c-14.6,3.5-25.4,16.6-25.4,32.3c0,18.4,14.9,33.2,33.2,33.2c14,0,26.1-8.7,30.9-21c2.6-8.7,2.6-16.9,0-24.4
		c-1.1-2.8-2.5-5.3-4.3-7.8c0-5-5.4-5-6.8-6.8c-1.3-1.7,1.4-2.5-8-4.7c-1.7-1-3.1-14.7-3.1-14.7c-1.4-8.7-4.5-14.7-9.1-24
		c-2.4-4.7-3.5-19.6-6-27.2c1.4-34.6-9.7-44.7-18.6-50.4c-3.4-2.2-5.2-3.7-8.5-5.8l-0.1-1.6c-2.6-2.5-7.9-5.2-12.3-7.1
		c-1.3-1.3-0.6-4.3,0.2-5.4c2.9-0.4,6.8-7,10.1-13.8c2.4,0.2,3.3-2.4,4.2-3.7c2.6-4.4,5.5-8.1,1.8-10.7c8.5-15.2,3-25.5-1.5-25.9
		c-2-3.8-5.1-6.2-10.9-8.2l301.4,0c20.6,0,37.3,16.7,37.3,37.2l0,373.2c0,18.7-13.5,34.1-31.3,36.8L189.3,472.4z"/>
	<polygon class="st0" points="265.5,320.2 265.5,226 232.5,226 232.5,194.4 332.6,194.4 332.6,226 299.5,226 299.5,320.2 	"/>
	<polygon class="st0" points="476,194.4 409.9,320.2 344.3,194.4 384.3,194.4 409.9,249.2 435.6,194.4 	"/>
	<g>
		<path class="st0" d="M48.6,390.1h12.6l8.9,30.7l0.4,2.2h0.1v-32.9h11.1V446H69.2l-9-32.5l-0.3-2h-0.1V446H48.6V390.1z"/>
		<path class="st0" d="M86.2,390.1h18.2c9.4,0,13.9,3.6,13.9,13.1c0,5.9-0.8,11-7.1,13.1v0.1c6.3,1.1,8.4,5.8,8.4,12.9
			c0,9.4-3.4,16.6-14.9,16.6H86.2V390.1z M99.4,436.5h3.8c4.3,0,4.8-2.1,4.8-7.6c0-3.8-0.5-7.5-4.5-7.5h-4.1V436.5z M99.4,412.2h3.5
			c4.1,0,4.5-3,4.5-6.5c0-3.9-0.8-6.1-4-6.1h-4V412.2z"/>
		<path class="st0" d="M130.4,390.1h17.1l10.5,55.9h-13.5l-1.2-12.3h-9l-1.3,12.3H120L130.4,390.1z M138.8,399.9l-3.2,25.1h6.4
			l-2.9-25.1l-0.1-1.3h-0.1L138.8,399.9z"/>
	</g>
</g>
</svg>
