<?xml version="1.0" encoding="utf-8"?>
<!-- Generator: Adobe Illustrator 25.4.1, SVG Export Plug-In . SVG Version: 6.00 Build 0)  -->
<svg version="1.1" id="Layer_1" xmlns="http://www.w3.org/2000/svg" xmlns:xlink="http://www.w3.org/1999/xlink" x="0px" y="0px"
	 viewBox="0 0 752.6 243.9" style="enable-background:new 0 0 752.6 243.9;" xml:space="preserve">
<style type="text/css">
	.st0{fill:#FFFFFF;}
	.st1{fill:#5A5A96;}
	.st2{fill:#B42846;}
	.st3{fill:#008CC3;}
	.st4{fill:#E16428;}
	.st5{fill:#00A846;}
	.st6{fill:#F0B428;}
</style>
<g id="Layer_2_00000137819568300976458740000011919625697373973402_">
	<g id="Layer_1-2">
		<path d="M195,230c-9.8,0-16.7-6.7-16.7-16.6c0.1-7.3,3-14.3,8.2-19.4c4.2-4.4,10-7,16.1-7.1c8.2,0,12.8,3.7,16.8,9.4l12.4-8.7
			c-5.5-9-14.3-14.6-27.4-14.6c-11.1,0-21.8,4.5-29.6,12.4c-7.7,7.6-12,17.9-12.2,28.7c0,18.3,13.6,29.9,32.3,29.9
			c11.5,0,19.4-4.4,25.9-10.5l-9.8-10.2C206,227.4,201.7,230,195,230z"/>
		<path d="M292.3,174.2l-7.3,27.1h-27.5l7.3-27.1h-15.1l-18.4,68.6h15.1l7.5-27.5h27.4l-7.5,27.5h15.1l18.4-68.6H292.3z"/>
		<path d="M335.4,186.4c-3.2-3.5-5.5-7.7-6.7-12.3h-1.3L309,242.8h15.1l14.4-53.5C336.7,187.4,336.1,187.5,335.4,186.4z"/>
		<path d="M382,230c-9.8,0-16.7-6.7-16.7-16.6c0-7.3,3-14.3,8.1-19.4c4.2-4.4,10-6.9,16.1-7.1c8.2,0,12.8,3.7,16.9,9.4l12.4-8.7
			c-5.5-9-14.3-14.6-27.4-14.6c-11.1,0-21.8,4.5-29.6,12.4c-7.7,7.6-12,17.9-12.1,28.7c0,18.3,13.6,29.9,32.3,29.9
			c11.5,0,19.4-4.4,26-10.5l-9.8-10.2C393,227.4,388.7,230,382,230z"/>
		<path d="M473.9,173.7h-14.5l-47.9,69.1h16.3l10.4-15.4h29l2.2,15.4h15.5L473.9,173.7z M447.2,214l15.1-22.6l3.1,22.6H447.2z"/>
		<path d="M529.6,216.3h15.2l-3.2,11.2c-3.8,1.8-8,2.7-12.3,2.6c-9.7,0-17.5-5.8-17.5-16.4c0-7.2,2.9-14.2,7.9-19.3
			c4.8-4.8,11.2-7.5,18-7.5c6.9-0.2,13.5,2.7,18,7.9l11.2-9.9c-4.8-6.3-13.5-11.9-28-11.9c-11.5-0.1-22.6,4.4-30.7,12.6
			c-7.7,7.6-12,17.8-12.1,28.6c0,20.5,16.5,29.8,32.2,29.8c8.7,0.1,17.3-2.1,24.9-6.4l9.7-34.2h-29.7L529.6,216.3z"/>
		<path d="M616.8,173c-22.6-0.1-41,18-41.2,40.6c0,17.2,12.4,30.4,31.3,30.4c22.6,0.1,41-18,41.2-40.6
			C648.1,186.1,635.7,173,616.8,173z M624.5,223.3c-4.2,4.3-9.9,6.7-15.9,6.7c-11.2,0-17.4-7.2-17.4-17.5c0.1-7.1,3-13.8,7.9-18.9
			c4.2-4.3,9.9-6.7,15.9-6.8c11.2,0,17.4,7.2,17.4,17.4C632.3,211.4,629.5,218.2,624.5,223.3L624.5,223.3z"/>
		<path class="st0" d="M117.8,17.7c3.3-5.3,8.7-10.8,14.5-13.2c10-4.6,23.4-2.6,31.6,4.6c7.9,7.1,11.9,16.9,10.1,27.9
			c1.9-0.3,3.9-1.6,6-2.3c12.2-3.4,25.2,0.3,33,10.8c5.9,7.5,7.4,19.1,3.9,28.2c-1.9,4.7-4.9,8.9-8.7,12.2l0.4,0.3
			c11.4,0.6,22.6,9.4,26.1,20.3c3.7,10.9,0.4,22.7-7.6,30.7c-6.5,6.4-14.9,8.7-24.3,8.5H32.8c-14,0.3-24.7-5.9-30.5-18.3
			c-4.6-10.6-2.3-24.2,6.2-32.3c5.3-5.6,12-7.9,19.3-9C19.6,78.5,15.7,68,18,56.8c1.7-9.1,9.4-18.2,18.2-21.4
			c7.8-3,18.4-2.5,25.5,1.7l0.3-0.3c-2.2-12.4,3.3-23.5,13.4-30.3c9.2-6.1,23.7-6,32.6,0.5C112.1,9.6,115.4,13.8,117.8,17.7z"/>
		<path class="st1" d="M165.9,22.2c3.6,7.4,1.5,17-2.3,23.7l-29.5,66.3l-0.2,0.3l-10.7-67.3c-0.8-6.5,6.1-9.2,10.1-12.3
			c-0.2-1-1.3-1-1.9-1.4l-9.9-0.1l-0.3-0.3c0-8.4,4.7-16.2,12.2-20.1c7.9-4.6,19.1-3.3,26,2.6C162.1,16,164.3,18.9,165.9,22.2
			L165.9,22.2z"/>
		<path class="st2" d="M111.6,20c2.6,4.6,3.7,9.9,2.9,15.1l-12,77c0,0.1,0,0.2-0.1,0.2c0,0,0,0,0,0l-3.1-6.2L69.2,38.9
			c-4-12.2,2.8-25.3,15-29.3c5.3-1.7,11-1.5,16.2,0.7C105,12.3,108.9,15.7,111.6,20z"/>
		<path class="st3" d="M209.4,52.4c4.1,6.9,3.2,17.4-1.3,23.8c-2.8,4.5-7.4,6.8-11.3,9.7l-62.4,42.8h-0.1l0.7-2.1L168,52
			c4.8-8.7,14.6-13.4,24.4-11.9C199.2,41.3,206.1,45.8,209.4,52.4L209.4,52.4z"/>
		<path class="st4" d="M67.7,52l34.4,76.7h-0.6L32.1,80.8c-7-5.8-10-15.1-7.5-23.8c2.1-7.1,7.2-12.8,14.1-15.6
			C49.6,37.3,61.9,41.8,67.7,52z"/>
		<path class="st5" d="M227.5,106.6c3.4,7.2,2.1,17.3-2.9,23.5c-4.6,5.9-11.7,9.2-19.2,9h-74l62-43.1c6.1-3.8,15.2-4.6,21.9-1.4
			C220.5,96.5,225.3,101.5,227.5,106.6L227.5,106.6z"/>
		<path class="st6" d="M8.4,106.6c-3.5,7.2-2.1,17.3,2.8,23.5c4.6,5.9,11.7,9.2,19.2,9h74l-62-43c-6-3.8-15.2-4.6-21.9-1.4
			C15.5,96.6,10.7,101.6,8.4,106.6L8.4,106.6z"/>
		<path d="M454.7,65.7c-5.9-4.6-14.4-1-14.4-1c-16.2,5.2-33.7,18.1-47.5,30.2c6.4-7.3,13.5-15.1,21.7-23.6c0,0,5.8-3,1.4-7.4
			c-3.1-3-6.4-5.9-9.8-8.6c0,0-2.1-1.9-3.2-1.1s-0.2,2.8-0.1,3.2s-2.6,3.8-2.6,3.8c-0.2,0.2-0.3,0.3-0.5,0.5
			c-4.7,4.1-13.2,8.2-17.5,10.1c-9.3,3.4-21.2,7.4-34,12c-0.8-0.8-1.6-1.5-2.6-2.1c-15.3-9.6-61-10.4-78.5-11.7
			c-18.9-1.4-23.2-2.7-23.9-5.8c-0.9-4.1,5.1-9.8,13.6-16.1c33.1-24.2,78.9-29.1,93.7-28.9c16.2,0.3,20.8,2.2,21,3.4
			c0.1,0.7-0.1,1.4-0.5,2c-2.6,3-6.2,5-10.1,7.5c-9.9,6.3-20.3,11.9-31,16.7c-3.5,3.3,3.3,4.1,3.3,4.1c9.3-0.4,18.4-2.4,27-5.9
			c17.6-6.7,21.9-12.8,22.4-16.4c0.8-5.7-1.4-11.7-1.5-12.2C376.7-0.8,346.3,0,346.3,0c-26.1,0.1-65.4,7.6-100.2,33.1
			C228.3,46.1,231,55.5,231,55.5s-0.3,18.1,13.5,22.6c5.5,1.8,9.6,2.7,18.7,3.6c17.6,1.8,30.7,2,49,3.3c10.7,0.7,18.2,2,23.3,3.3
			c-14.9,5.5-30.3,11.7-43.7,18.4c-11.7,5.9-29.2,15.7-35.5,23.6c-6.8,8.6-1.7,15.6-1.3,15.6c1.4,2.4,6.4,10.1,25.7,7.7
			c9.8-1.2,21.2-5.9,30-10.6c10.1-5.5,19.4-12.4,27.7-20.4c11.3-10.9,14.6-19.4,14.6-26.8c0-2.4-0.4-4.8-1.3-7
			c13.7-4.7,25.6-8.3,33.6-10.6c-18.5,22.3-47.7,61.6-47.4,87.7c0,2.8,0.5,5.7,1.3,8.4c0.5,1.6,1.2,3.1,2.1,4.6
			c0.2,0.3,0.4,0.7,0.7,1.1c0.8,1.2,1.6,2.4,2.6,3.5c0,0,3,2.5,4.1,1s-2.2-3.1-2.2-3.1c-0.9-1.1-1.5-3-1.1-6.2
			c0.4-3.2,1.1-6.4,2.1-9.5c0.5-1.9,1.2-3.8,1.9-5.7l4.6-10.3v-0.1l0,0c7.6-12.8,16.7-24.7,27.3-35.2c29.4-29.2,55.6-41.2,60.9-43
			c3.9-1.2,5.6-0.9,6.3-0.3c3.8,3.3-5.6,18.4-5.6,18.4c-0.2,0.2-0.3,0.5-0.5,0.7c-16.8,24.6-26.7,31.4-35.5,34.8
			c-6.1,1.8-9.8-0.2-11-1c-2.1-2-3.3-4.8-3.1-6.2c0.4-2.6-0.8-2.5-0.8-2.5c-4.2,1.4-1.9,8.8-1.9,8.8c3.1,14,22.5,17.6,41,3.8
			c24.4-18.2,29.2-32.8,32.7-41.8S460.6,70.3,454.7,65.7z M341.6,96.9c-6.1,10.7-26.9,23.4-33.8,27.3c-7.5,4.4-15.4,8.2-23.6,11.3
			c-12.1,4.4-22.8,6.4-23.8,3.4c-0.4-1.2-1.2-1.8,2.7-5.9c4.6-4.8,18.6-13.8,31.5-20.5c15.3-7.8,31.2-14.6,47.3-20.4
			C342.6,93.3,342.8,94.9,341.6,96.9z"/>
		<path d="M752.5,55.3c-1.3-8-13.5-9.9-34.9-8.2c-11.3,0.9-32.6,3.9-51.7,7l18.8-21c0,0,4.1-2.6-0.1-5.9c-2.7-2.1-5.7-3.9-8.8-5.4
			c0,0-1.9-1.8-5.2,1.2c-1.9,1.8-14,14-30.9,35.2c-18.9,2.5-40.6,4-46.2,4.7c0,0-2.8,0.6-3.8-1.3c0,0-2.5-1.7-1.9,2.4
			c0,0,0.6,10.9,11.1,8.9c5.9-1.1,18-2.7,33-4.7c-2.5,3.3-6.5,8.3-10.6,14.1c-18.8,20.5-50.6,53.4-57.7,49c0,0-1.6-1.4-0.5-5
			c1.6-5.2,7.7-14.7,19.8-28.9c0,0,5.6-6.6,5.4-9.6c-0.4-4.5-2.9-4.4-2.9-4.4s-16.1-4.7-21.5-9.5c2.2-3.5,6.4-11.3,1.1-15
			c0,0-6.8-4.3-11.8,5.9c-2,4.1-1.8,8,0.8,11.6c-3.7,3.9-13.9,13.9-24.1,16.9c-0.6-3.6-2.1-5.7-4.3-6.8c0,0-5.6-2.8-8.7,0.7
			s-0.3,7,2.8,9.4c-0.9,2.8-3.5,6.4-7.1,12c-4.8,7.8-11.2,14.4-18.7,19.6c-2.8,1.9-14.1,8.4-17.1-0.5c-1.7-4.9,1.1-14.5,8.1-25.3
			c14.3-22.4,34.4-29.7,39.9-26.2c0,0,2.5,2.5,1,5.3c0,0-0.6,1.5,1.5,1.7s3.2-1.6,3.6-3.4c0.9-4.7-3.4-10.2-8.3-14
			c-1.6-1.2-3.3-2.2-5.1-3c0,0-8.5-3-20.2,2.8c-3.6,1.8-18.9,10.2-30,30c-3.5,6.3-5.8,13-5.7,19.5c-0.1,4.4,1,8.7,3.1,12.4
			c3,4.5,7.1,8.2,11.8,10.9c12.5,6.4,27.2-5.8,33-11c10.1-9.2,17.8-21.5,19.6-26.8c13.2-3.4,26.3-16.7,30.5-21.3
			c0.8,0.5,1.6,1,2.5,1.5l7.9,4.2c-3.5,3.9-6.7,8-9.6,12.3c-5.1,7.2-17.7,24-9.5,34.9c1.8,2.7,4.3,4.9,7.3,6.2
			c10.8,4.3,22.9-6.3,41.8-26.1c3-3.1,5.9-6.3,8.6-9.3c-1.2,2.4-2.3,4.7-3.2,7.1c-4.4,11.5-1.8,21.8,7.4,27.9
			c5.5,3.6,12.6,2,20.7-3.4c16-10.6,39.7-34.4,54.8-50.3c-0.5,2.2-1.1,4.6-1.5,7.2c-3.6,19.9-15.7,45.5-20.4,38.9
			c-0.1,1-0.2-4.4-2.7-6.6c-2.4-2-4.4-2.5-7-0.8c-3.4,2.2-1.7,10.6,8.8,16c2,1.1,4.2,1.8,6.5,2.1c5.7,1,17.3,1.1,31-9.2
			c18.5-13.9,38.5-33.8,38.5-33.8s4-3.6,0.2-5.7c-1.2-0.5-2.6-0.3-3.6,0.6c-0.7,0.6-1.3,1.3-1.9,2.1c0.3-0.3-28,26.7-44.8,35.7
			c2.7-3.3,4.4-8.1,5.8-13.8c1.2-4.8,3.2-17.6,5.4-27c0.8-3.6,1.9-7.1,3.4-10.4c2-4.6,4.9-4.2,5.5-5.5c0.5-0.9,0.3-1.8-0.9-3.3
			c-1.1-1.3-2.2-2.5-3.5-3.6c-1.3-1.2-4.1-3.1-5.6-3.4c-1.1-0.3-2.3,0-3.2,0.7c-1.8,1.5-3.3,3.2-4.4,5.3
			c-10.1,11.1-43.4,46.5-63.8,58.6c1.1-0.7-16.5,11.3-12.8-4.2c1.7-7,8.8-22.8,28.6-47.7l10.3-11.5c8.5-1.2,17.3-2.5,26.1-4
			c0,0,77.6-9.6,56.6,6.9c0,0,1.3,2.6,4.6,0C750.4,62.4,752.9,57.7,752.5,55.3L752.5,55.3z"/>
	</g>
</g>
<g>
	<path d="M666.1,200.7H683l2.4-16.9h10.1l-2.4,16.9H710l-1.4,10.1h-16.9l-2.3,16.9h-10.1l2.3-16.9h-16.9L666.1,200.7z"/>
</g>
</svg>
