<?xml version="1.0" encoding="utf-8"?>
<!-- Generator: Adobe Illustrator 25.4.1, SVG Export Plug-In . SVG Version: 6.00 Build 0)  -->
<svg version="1.1" id="Layer_1" xmlns="http://www.w3.org/2000/svg" xmlns:xlink="http://www.w3.org/1999/xlink" x="0px" y="0px"
	 viewBox="0 0 1000 1000" style="enable-background:new 0 0 1000 1000;" xml:space="preserve">
<path d="M1000,499.9c0,276.1-223.9,500-500,500c-276.1,0-500-223.9-500-500c0-26.1,2-51.7,5.9-76.7h106.8v295.4h101.3V423.2h113.5
	v295.4h96.8V498.4h2.1l128.8,192.9c12.8,20.3,24.6,27.3,49.3,27.3h66.5V423.2h113.8v295.4h99.6V423.2h109.8
	C998,448.2,1000,473.8,1000,499.9z M323.9,350.6h98c24.7,0,37,6.9,49.3,27.3l101.2,157.7h3.5v-185h401.2C913.7,147.5,724,0,499.8,0
	C275.7,0,86,147.5,22.6,350.6H323.9"/>
</svg>
